<svg width="45" height="46" viewBox="0 0 45 46" fill="none" xmlns="http://www.w3.org/2000/svg">
<rect x="0.5" y="1.4375" width="44" height="44" rx="22" stroke="#158153"/>
<path d="M26.5029 32.9359C26.1054 32.9345 25.7245 32.7764 25.4429 32.4959L17.4429 24.4959C17.1595 24.216 17 23.8342 17 23.4359C17 23.0376 17.1595 22.6558 17.4429 22.3759L25.4429 14.3759C25.8168 13.9746 26.38 13.8094 26.9114 13.9451C27.4429 14.0809 27.8579 14.4958 27.9936 15.0273C28.1294 15.5588 27.9642 16.122 27.5629 16.4959L20.6229 23.4359L27.5629 30.3759C27.8462 30.6558 28.0057 31.0376 28.0057 31.4359C28.0057 31.8342 27.8462 32.216 27.5629 32.4959C27.2812 32.7764 26.9003 32.9345 26.5029 32.9359Z" fill="#052B1B"/>
</svg>
