<svg width="45" height="46" viewBox="0 0 45 46" fill="none" xmlns="http://www.w3.org/2000/svg">
<g clip-path="url(#clip0_0_3)">
<path d="M44.5 23.4375C44.5 11.2872 34.6503 1.4375 22.5 1.4375C10.3497 1.4375 0.5 11.2872 0.5 23.4375C0.5 35.5878 10.3497 45.4375 22.5 45.4375C34.6503 45.4375 44.5 35.5878 44.5 23.4375Z" fill="white" stroke="#158153"/>
<path fill-rule="evenodd" clip-rule="evenodd" d="M16.7109 31.6474C16.7109 31.2432 16.8646 30.839 17.173 30.5305L24.4783 23.2263L17.173 15.9221C16.5573 15.3052 16.5573 14.3052 17.173 13.6884C17.7899 13.0726 18.7899 13.0726 19.4067 13.6884L27.8278 22.1095C28.4436 22.7263 28.4436 23.7263 27.8278 24.3432L19.4067 32.7642C18.7899 33.38 17.7899 33.38 17.173 32.7642C16.8646 32.4558 16.7109 32.0516 16.7109 31.6474Z" fill="#052B1B"/>
</g>
<defs>
<clipPath id="clip0_0_3">
<rect width="45" height="46" fill="white"/>
</clipPath>
</defs>
</svg>
