<svg width="257" height="73" viewBox="0 0 257 73" fill="none" xmlns="http://www.w3.org/2000/svg">
<path d="M57.0401 0H16.7765C7.51109 0 0 7.24267 0 16.177V55.0017C0 63.936 7.51109 71.1786 16.7765 71.1786H57.0401C66.3055 71.1786 73.8166 63.936 73.8166 55.0017V16.177C73.8166 7.24267 66.3055 0 57.0401 0Z" fill="#158153"/>
<path fill-rule="evenodd" clip-rule="evenodd" d="M35.2594 8.7622C32.9725 9.01599 30.6376 9.9108 28.7541 11.2553C27.9494 11.8297 26.5459 13.1483 26.3509 13.5131C26.2289 13.7408 26.2905 14.038 26.9067 16.1941C27.288 17.5277 27.5996 18.6555 27.5992 18.7003C27.5988 18.7451 27.2565 18.9669 26.8384 19.1933C22.47 21.5594 18.8683 25.7586 17.2349 30.3901L16.9186 31.2866L18.3859 31.7367C19.1929 31.9842 19.87 32.1698 19.8907 32.1492C19.9115 32.1285 20.0697 31.7281 20.2422 31.2597C21.2176 28.612 22.9891 26.0395 25.1298 24.1615C26.2654 23.1654 28.3507 21.7555 28.487 21.8919C28.5346 21.9396 28.7145 22.5238 29.3151 24.5795L29.4751 25.1272L28.7736 25.5949C27.9811 26.1234 26.9521 26.9987 26.4692 27.5552L26.1453 27.9285L27.2928 28.9549L28.4405 29.9813L29.2968 29.1854C29.7678 28.7474 30.2089 28.3893 30.2772 28.3893C30.3896 28.3893 31.2723 31.2123 31.2723 31.5719C31.2723 31.6534 31.092 31.9273 30.8717 32.1809C30.0572 33.118 29.4414 34.2193 29.1719 35.2211C29.0504 35.6728 29.1882 35.6109 27.2326 36.0899C25.394 36.5398 25.5932 36.5474 25.6681 36.0305C25.7817 35.2446 26.1068 34.0095 26.3714 33.3581L26.6276 32.727L25.2639 32.0829C24.5138 31.7289 23.8643 31.4611 23.8205 31.4882C23.6783 31.5761 23.1961 32.8901 22.9304 33.9135C22.7879 34.4623 22.6174 35.4442 22.5514 36.0952L22.4315 37.2792L16.753 38.6746C13.6297 39.4423 11.018 40.1235 10.9492 40.1886C10.788 40.3409 10.3197 41.9644 10.1601 42.924C9.99608 43.9105 10.0031 46.2148 10.1731 47.1321C10.9116 51.1186 12.9803 54.3452 16.1847 56.5087C17.5216 57.411 18.738 57.947 20.4126 58.3712L21.4619 58.6371L23.3402 56.7423L25.2185 54.8478L25.9825 55.3244C26.9671 55.9384 28.6698 56.7496 29.8032 57.1446C31.8158 57.8458 33.3122 58.1526 35.5216 58.317C37.114 58.4355 38.1448 58.3931 39.9145 58.1362L41.0547 57.9708L40.9951 57.539C40.9624 57.3015 40.8313 56.6186 40.7042 56.0213L40.4727 54.9358L40.0432 54.988C36.3195 55.4414 34.222 55.2894 31.3299 54.3562C30.2569 54.01 27.495 52.711 27.495 52.5525C27.495 52.5133 28.0066 51.9399 28.6322 51.2783L29.7694 50.0755L30.5995 50.4647C32.4242 51.3201 34.8209 51.9078 36.4922 51.9093L36.8333 51.9095V50.3346V48.7596L36.3348 48.7594C35.3086 48.7592 32.7753 48.1458 32.269 47.775C32.1338 47.6759 32.3053 47.4609 33.3427 46.4288L34.5773 45.2006L35.2594 45.3487C36.3557 45.5873 37.9426 45.5382 38.9467 45.2346C39.0694 45.1976 40.9929 47.1276 45.5958 51.9061C49.1579 55.6041 52.1415 58.6298 52.226 58.6298C52.5081 58.6298 54.0242 58.2106 54.8677 57.8994C57.8983 56.7809 60.6458 54.2419 62.2012 51.1221C62.9538 49.6125 63.5888 47.3516 63.5888 46.1817C63.5888 45.9316 63.636 45.6978 63.6938 45.6621C63.7513 45.6263 63.7986 45.2663 63.7986 44.8621C63.7986 44.458 63.7581 44.1521 63.7085 44.1829C63.6589 44.2134 63.588 43.8738 63.5507 43.4279C63.5135 42.9818 63.3688 42.1917 63.2294 41.672C62.7961 40.0576 63.1236 40.2885 60.2589 39.5789L57.7433 38.9557L57.6808 37.1113C57.611 35.0586 57.4403 33.8486 56.9707 32.0775C56.0485 28.5997 54.3533 25.6234 51.7476 22.9064L50.7396 21.8554L50.2128 22.4225C49.9233 22.7345 49.4542 23.2622 49.1703 23.5953L48.6543 24.2008L49.3388 24.9038C51.6395 27.2661 53.1127 29.8243 53.9764 32.9568C54.3109 34.1698 54.5653 36.0121 54.5653 37.2202C54.5653 38.0741 54.5472 38.1632 54.3818 38.1143C54.2808 38.0845 53.5319 37.8864 52.7177 37.6741L51.237 37.288L51.1767 36.4349C51.0097 34.0795 50.157 31.5752 48.8627 29.6391C47.8873 28.1803 48.1134 28.2339 46.9509 29.1875C46.3951 29.6438 45.8502 30.0883 45.74 30.1757C45.5466 30.329 45.5543 30.3542 45.9723 30.9107C46.5439 31.6714 47.2352 33.0646 47.5731 34.1363C47.842 34.9899 48.1096 36.3548 48.0245 36.4401C47.9879 36.4768 46.5905 36.1498 45.0105 35.735C44.6714 35.6459 44.6192 35.5808 44.4486 35.0319C44.1697 34.134 43.6169 33.1376 42.9545 32.339L42.3661 31.6297L44.8598 22.8957C46.2315 18.092 47.3948 14.0515 47.4452 13.917C47.5243 13.7053 47.448 13.5794 46.8802 12.9856C45.2515 11.2818 43.4455 10.1286 41.2571 9.39525C39.4895 8.80293 37.1331 8.55419 35.2594 8.7622ZM34.9918 11.9453C33.0315 12.321 31.3173 13.1084 29.9708 14.2517L29.666 14.5104L31.8377 22.1061C33.0323 26.2838 34.0268 29.7536 34.0479 29.8168C34.074 29.8954 34.331 29.8672 34.8564 29.7283C35.9152 29.448 37.7511 29.448 38.81 29.7283C39.3445 29.8697 39.5939 29.8964 39.6248 29.8155C39.7493 29.4908 43.9679 14.6844 43.9679 14.5721C43.9679 14.3543 42.613 13.395 41.6073 12.9007C40.1538 12.1865 38.9592 11.9011 37.2004 11.848C36.225 11.8184 35.4829 11.8511 34.9918 11.9453ZM35.8947 32.6973C35.1217 32.86 33.985 33.4688 33.4407 34.0117C32.4555 34.9941 31.978 36.1671 31.9891 37.5769C32.0102 40.2535 34.1427 42.3607 36.8333 42.363C41.1682 42.3665 43.3531 37.1291 40.2936 34.0674C39.7143 33.4876 39.0277 33.0611 38.3263 32.8454C37.6786 32.6464 36.4828 32.5736 35.8947 32.6973ZM21.0421 40.8197L13.3827 42.7273L13.2616 43.3021C13.1951 43.6183 13.136 44.3079 13.1305 44.8345C13.0926 48.4267 14.9773 51.9722 17.964 53.9266C18.8527 54.5081 19.9316 55.0332 20.3426 55.0841C20.5196 55.106 21.7854 53.8573 26.116 49.3895L31.6626 43.6671L30.9544 42.9075C30.1381 42.0322 29.388 40.681 29.1155 39.595C29.0181 39.2069 28.885 38.8944 28.8199 38.9007C28.7549 38.9071 25.2549 39.7704 21.0421 40.8197ZM44.6531 39.2801C44.4231 40.5137 43.574 42.0607 42.5624 43.0896L41.9946 43.6671L47.5151 49.3895C52.3688 54.4209 53.0715 55.1102 53.3309 55.0964C53.7152 55.076 55.0123 54.4565 55.8194 53.908C59.1624 51.6362 61.0945 47.256 60.4321 43.4504L60.3185 42.7962L52.694 40.8913C48.5007 39.8436 44.9925 38.9632 44.8983 38.9347C44.7684 38.8955 44.709 38.9791 44.6531 39.2801ZM10.0079 44.9795C10.0079 45.4127 10.0265 45.5898 10.0491 45.3733C10.0717 45.1568 10.0717 44.8024 10.0491 44.5857C10.0265 44.3692 10.0079 44.5463 10.0079 44.9795Z" fill="white"/>
<path d="M95.6787 45.3422C94.4836 45.3422 93.3938 45.1728 92.4096 44.8339C91.4255 44.4779 90.5642 43.9865 89.8261 43.3595C89.088 42.7325 88.464 41.9952 87.9544 41.1478L90.9597 39.4955C91.276 40.0547 91.6715 40.5461 92.1461 40.9699C92.6206 41.3766 93.1565 41.6901 93.7542 41.9105C94.3692 42.1308 95.0195 42.2409 95.705 42.2409C96.5487 42.2409 97.3131 42.0883 97.9987 41.7833C98.684 41.4613 99.264 41.0293 99.7385 40.4869C100.231 39.9275 100.6 39.2921 100.846 38.5803C101.109 37.8516 101.241 37.089 101.241 36.2925L102.718 37.2584H94.0969V34.6656H102.638L101.215 35.6061C101.18 34.8944 101.039 34.208 100.793 33.547C100.547 32.8861 100.187 32.3013 99.7122 31.7928C99.2377 31.2845 98.6665 30.8863 97.9987 30.5981C97.3307 30.2931 96.5663 30.1405 95.705 30.1405C95.0372 30.1405 94.4045 30.2508 93.8068 30.471C93.2093 30.6744 92.682 30.9795 92.2252 31.3862C91.7681 31.7928 91.3814 32.2929 91.0651 32.8861L88.1916 30.9795C88.9473 29.827 89.9227 28.8865 91.1179 28.1578C92.3305 27.4121 93.8684 27.0392 95.7313 27.0392C97.19 27.0392 98.4908 27.2934 99.6331 27.8019C100.775 28.3104 101.742 28.9966 102.533 29.861C103.324 30.7253 103.921 31.6997 104.326 32.7843C104.748 33.8689 104.958 34.996 104.958 36.1653C104.958 37.3856 104.739 38.5465 104.299 39.648C103.878 40.7496 103.254 41.7326 102.428 42.5968C101.619 43.4442 100.644 44.1135 99.5012 44.6051C98.3589 45.0965 97.0846 45.3422 95.6787 45.3422ZM107.803 45.1897V27.1408H111.414V34.4112H113.26L118.822 27.1408H122.882L116.081 35.8856L123.41 45.1897H119.007L113.207 37.5888H111.414V45.1897H107.803ZM132.807 45.3169C131.436 45.3169 130.188 45.0627 129.064 44.5542C127.956 44.0459 126.998 43.3595 126.19 42.4952C125.399 41.6138 124.784 40.631 124.345 39.5464C123.905 38.4447 123.686 37.3178 123.686 36.1653C123.686 34.962 123.914 33.8182 124.371 32.7336C124.845 31.6319 125.487 30.6575 126.295 29.8101C127.121 28.9458 128.088 28.2679 129.195 27.7765C130.32 27.268 131.55 27.0138 132.886 27.0138C134.239 27.0138 135.47 27.2764 136.577 27.8019C137.702 28.3273 138.66 29.0306 139.451 29.9117C140.242 30.7931 140.857 31.7759 141.296 32.8606C141.735 33.9452 141.955 35.0638 141.955 36.2163C141.955 37.4025 141.727 38.5465 141.27 39.648C140.813 40.7327 140.171 41.707 139.345 42.5715C138.537 43.4189 137.57 44.0882 136.445 44.5798C135.338 45.0712 134.125 45.3169 132.807 45.3169ZM127.376 36.1653C127.376 36.9449 127.499 37.6991 127.745 38.4278C127.991 39.1566 128.343 39.809 128.8 40.3851C129.274 40.9445 129.846 41.3935 130.514 41.7326C131.199 42.0545 131.972 42.2155 132.833 42.2155C133.712 42.2155 134.494 42.0461 135.18 41.707C135.865 41.3512 136.436 40.8852 136.893 40.3089C137.35 39.7158 137.693 39.0633 137.922 38.3515C138.168 37.6229 138.291 36.894 138.291 36.1653C138.291 35.3858 138.159 34.64 137.895 33.9283C137.649 33.1996 137.289 32.5555 136.814 31.9963C136.357 31.4202 135.786 30.971 135.101 30.649C134.433 30.31 133.677 30.1405 132.833 30.1405C131.937 30.1405 131.146 30.3184 130.461 30.6744C129.793 31.0133 129.231 31.4709 128.774 32.0472C128.317 32.6233 127.965 33.2674 127.719 33.9792C127.491 34.6909 127.376 35.4196 127.376 36.1653ZM144.799 45.1897V27.1408H148.41V34.4112H150.256L155.818 27.1408H159.878L153.077 35.8856L160.405 45.1897H156.003L150.203 37.5888H148.41V45.1897H144.799ZM174.812 45.1897V30.2168H169.329L169.223 33.2674C169.135 35.6568 168.933 37.6313 168.617 39.1904C168.301 40.7496 167.844 41.9783 167.246 42.8765C166.649 43.7577 165.893 44.3848 164.979 44.7576C164.083 45.1134 163.002 45.2915 161.736 45.2915V42.2664C162.386 42.2664 162.949 42.1308 163.423 41.8595C163.898 41.5885 164.293 41.0971 164.61 40.3851C164.944 39.6734 165.207 38.665 165.401 37.3601C165.594 36.0551 165.726 34.369 165.796 32.3013L165.981 27.1408H178.424V45.1897H174.812ZM182.491 45.1897V27.1408H186.103V40.2582L195.172 27.1408H198.546V45.1897H194.935V32.2251L185.971 45.1897H182.491ZM217.834 45.1897V33.3437L213.035 42.1646H211.005L206.208 33.3437V45.1897H202.57V27.1408H206.471L212.007 37.411L217.597 27.1408H221.472V45.1897H217.834ZM230.467 27.1408H234.159L241.04 45.1897H237.297L235.555 40.6902H229.017L227.304 45.1897H223.56L230.467 27.1408ZM234.896 38.2243L232.314 30.776L229.625 38.2243H234.896ZM255.366 30.2168H249.382V45.1897H245.77V30.2168H239.785V27.1408H255.366V30.2168Z" fill="#158153"/>
</svg>
