<svg width="228" height="65" viewBox="0 0 228 65" fill="none" xmlns="http://www.w3.org/2000/svg">
<path d="M50.6037 0H14.8834C6.66353 0 0 6.44895 0 14.4041V48.9741C0 56.9293 6.66353 63.3783 14.8834 63.3783H50.6037C58.8235 63.3783 65.4871 56.9293 65.4871 48.9741V14.4041C65.4871 6.44895 58.8235 0 50.6037 0Z" fill="white"/>
<path fill-rule="evenodd" clip-rule="evenodd" d="M31.2807 7.80196C29.2519 8.02794 27.1804 8.82469 25.5095 10.0219C24.7956 10.5333 23.5505 11.7074 23.3774 12.0322C23.2693 12.235 23.3239 12.4996 23.8705 14.4194C24.2088 15.6069 24.4853 16.6111 24.4849 16.651C24.4845 16.6908 24.1809 16.8884 23.8099 17.0899C19.9344 19.1967 16.7392 22.9358 15.2901 27.0597L15.0095 27.858L16.3112 28.2587C17.0271 28.4791 17.6279 28.6443 17.6462 28.626C17.6647 28.6075 17.805 28.251 17.9581 27.834C18.8234 25.4764 20.395 23.1858 22.2942 21.5136C23.3016 20.6267 25.1516 19.3714 25.2725 19.4928C25.3147 19.5352 25.4743 20.0554 26.0072 21.8858L26.1491 22.3735L25.5268 22.79C24.8237 23.2606 23.9108 24.0399 23.4824 24.5354L23.195 24.8678L24.2131 25.7817L25.2313 26.6957L25.9909 25.987C26.4088 25.597 26.8001 25.2782 26.8607 25.2782C26.9604 25.2782 27.7435 27.7918 27.7435 28.112C27.7435 28.1845 27.5836 28.4284 27.3881 28.6542C26.6656 29.4886 26.1193 30.4693 25.8801 31.3613C25.7723 31.7634 25.8946 31.7084 24.1597 32.1348C22.5285 32.5354 22.7053 32.5422 22.7717 32.0819C22.8725 31.3822 23.1609 30.2825 23.3956 29.7024L23.6229 29.1405L22.4131 28.567C21.7477 28.2517 21.1715 28.0133 21.1326 28.0374C21.0064 28.1157 20.5787 29.2857 20.3429 30.1969C20.2165 30.6856 20.0652 31.5599 20.0067 32.1396L19.9003 33.1938L14.8626 34.4363C12.0917 35.1198 9.77474 35.7264 9.71368 35.7844C9.57071 35.92 9.15518 37.3656 9.01359 38.22C8.86812 39.0984 8.87434 41.1501 9.02513 41.9669C9.68036 45.5166 11.5156 48.3896 14.3584 50.316C15.5445 51.1194 16.6236 51.5967 18.1092 51.9743L19.0401 52.2111L20.7065 50.524L22.3728 48.8371L23.0506 49.2614C23.9241 49.8081 25.4347 50.5305 26.4402 50.8822C28.2257 51.5065 29.5532 51.7797 31.5133 51.9261C32.926 52.0316 33.8405 51.9938 35.4105 51.7651L36.422 51.6179L36.3692 51.2333C36.3402 51.0219 36.2239 50.4138 36.1111 49.882L35.9058 48.9154L35.5247 48.9619C32.2212 49.3656 30.3604 49.2303 27.7946 48.3993C26.8427 48.0911 24.3925 46.9344 24.3925 46.7933C24.3925 46.7584 24.8463 46.2478 25.4013 45.6587L26.4102 44.5878L27.1467 44.9343C28.7655 45.696 30.8917 46.2193 32.3744 46.2206L32.677 46.2208V44.8185V43.4161L32.2348 43.4159C31.3244 43.4157 29.0769 42.8695 28.6278 42.5394C28.5078 42.4512 28.6599 42.2597 29.5803 41.3407L30.6755 40.2471L31.2807 40.379C32.2533 40.5915 33.6611 40.5477 34.5519 40.2774C34.6608 40.2444 36.3672 41.963 40.4507 46.2177C43.6109 49.5105 46.2578 52.2046 46.3328 52.2046C46.583 52.2046 47.9281 51.8313 48.6764 51.5542C51.365 50.5584 53.8025 48.2976 55.1824 45.5197C55.8501 44.1755 56.4134 42.1624 56.4134 41.1207C56.4134 40.898 56.4553 40.6898 56.5065 40.658C56.5576 40.6262 56.5995 40.3056 56.5995 39.9457C56.5995 39.5859 56.5636 39.3135 56.5196 39.3409C56.4756 39.3681 56.4127 39.0657 56.3796 38.6687C56.3466 38.2715 56.2183 37.5679 56.0945 37.1052C55.7101 35.6677 56.0007 35.8733 53.4593 35.2415L51.2275 34.6866L51.172 33.0443C51.1102 31.2166 50.9587 30.1391 50.5421 28.5622C49.724 25.4655 48.2201 22.8153 45.9084 20.3961L45.0141 19.4603L44.5468 19.9653C44.29 20.243 43.8737 20.7129 43.6219 21.0095L43.1641 21.5487L43.7714 22.1746C45.8124 24.278 47.1195 26.5559 47.8857 29.3451C48.1824 30.4251 48.4081 32.0655 48.4081 33.1413C48.4081 33.9016 48.392 33.981 48.2453 33.9374C48.1557 33.9108 47.4913 33.7345 46.769 33.5455L45.4554 33.2017L45.4019 32.442C45.2538 30.3447 44.4973 28.1149 43.349 26.391C42.4836 25.0921 42.6842 25.1398 41.6529 25.9889C41.1598 26.3951 40.6764 26.7909 40.5787 26.8688C40.4071 27.0053 40.414 27.0277 40.7848 27.5232C41.2919 28.2006 41.9052 29.4411 42.2049 30.3954C42.4435 31.1554 42.6809 32.3707 42.6054 32.4466C42.5729 32.4793 41.3332 32.1882 39.9315 31.8189C39.6306 31.7395 39.5843 31.6815 39.433 31.1928C39.1856 30.3933 38.6951 29.5061 38.1075 28.795L37.5855 28.1635L39.7978 20.3866C41.0147 16.1093 42.0467 12.5116 42.0914 12.3919C42.1616 12.2034 42.0939 12.0913 41.5902 11.5625C40.1453 10.0454 38.5431 9.01859 36.6016 8.36563C35.0335 7.83823 32.943 7.61675 31.2807 7.80196ZM31.0433 10.6362C29.3042 10.9708 27.7835 11.6719 26.5889 12.6898L26.3184 12.9202L28.2451 19.6835C29.3049 23.4034 30.1872 26.493 30.2059 26.5492C30.2291 26.6192 30.4571 26.5941 30.9232 26.4704C31.8626 26.2208 33.4912 26.2208 34.4306 26.4704C34.9048 26.5963 35.1261 26.6201 35.1535 26.548C35.264 26.259 39.0066 13.0751 39.0066 12.9752C39.0066 12.7813 37.8045 11.927 36.9123 11.4869C35.6228 10.851 34.563 10.5969 33.0027 10.5496C32.1374 10.5232 31.479 10.5524 31.0433 10.6362ZM31.8443 29.114C31.1586 29.2589 30.1501 29.801 29.6672 30.2844C28.7932 31.1591 28.3696 32.2036 28.3795 33.4589C28.3982 35.8422 30.2901 37.7185 32.677 37.7205C36.5228 37.7236 38.4611 33.0602 35.7469 30.334C35.2329 29.8177 34.6238 29.438 34.0015 29.2459C33.4269 29.0687 32.3661 29.0039 31.8443 29.114ZM18.6677 36.3463L11.8726 38.0448L11.7652 38.5566C11.7061 38.8382 11.6537 39.4523 11.6488 39.9211C11.6152 43.1196 13.2873 46.2766 15.9369 48.0169C16.7253 48.5346 17.6825 49.0021 18.0472 49.0475C18.2041 49.067 19.3271 47.9551 23.169 43.9769L28.0898 38.8816L27.4614 38.2053C26.7373 37.426 26.0719 36.2228 25.8301 35.2558C25.7437 34.9103 25.6256 34.632 25.5678 34.6376C25.5102 34.6433 22.4051 35.412 18.6677 36.3463ZM39.6144 34.9755C39.4104 36.0738 38.6571 37.4513 37.7596 38.3674L37.2559 38.8816L42.1535 43.9769C46.4595 48.457 47.0829 49.0707 47.313 49.0584C47.6539 49.0403 48.8047 48.4886 49.5207 48.0003C52.4865 45.9774 54.2005 42.0772 53.6129 38.6887L53.5121 38.1062L46.7479 36.4101C43.0278 35.4772 39.9155 34.6932 39.8319 34.6679C39.7167 34.633 39.664 34.7074 39.6144 34.9755ZM8.87863 40.0503C8.87863 40.436 8.8951 40.5937 8.91511 40.4009C8.93522 40.2081 8.93522 39.8925 8.91511 39.6996C8.8951 39.5068 8.87863 39.6645 8.87863 40.0503Z" fill="#158153"/>
<path d="M84.8823 40.3732C83.822 40.3732 82.8552 40.2223 81.9821 39.9206C81.109 39.6036 80.3449 39.1661 79.6901 38.6078C79.0352 38.0494 78.4817 37.3929 78.0296 36.6384L80.6957 35.1672C80.9764 35.6651 81.3272 36.1027 81.7483 36.48C82.1693 36.8422 82.6447 37.1213 83.1749 37.3175C83.7205 37.5137 84.2974 37.6117 84.9056 37.6117C85.6541 37.6117 86.3323 37.4759 86.9405 37.2043C87.5485 36.9176 88.063 36.5329 88.484 36.05C88.9205 35.5519 89.248 34.9861 89.4663 34.3523C89.7001 33.7035 89.8172 33.0244 89.8172 32.3152L91.1268 33.1753H83.4789V30.8666H91.0567L89.7938 31.7041C89.7625 31.0703 89.6378 30.4592 89.4195 29.8706C89.2012 29.2821 88.8816 28.7615 88.4606 28.3087C88.0396 27.8561 87.5329 27.5015 86.9405 27.2449C86.3478 26.9733 85.6697 26.8375 84.9056 26.8375C84.3132 26.8375 83.7518 26.9356 83.2216 27.1317C82.6915 27.3128 82.2237 27.5844 81.8184 27.9466C81.413 28.3087 81.0699 28.7539 80.7892 29.2821L78.2401 27.5844C78.9104 26.5583 79.7758 25.7208 80.8361 25.072C81.9119 24.408 83.2762 24.076 84.9289 24.076C86.2231 24.076 87.377 24.3023 88.3905 24.7551C89.4039 25.2078 90.2615 25.8188 90.9632 26.5886C91.6648 27.3581 92.1949 28.2257 92.5535 29.1915C92.9279 30.1572 93.1148 31.1608 93.1148 32.202C93.1148 33.2885 92.9199 34.3222 92.5302 35.303C92.156 36.2838 91.6025 37.1591 90.8697 37.9287C90.1524 38.6832 89.2869 39.2791 88.2735 39.7169C87.26 40.1544 86.1296 40.3732 84.8823 40.3732ZM95.6382 40.2374V24.1665H98.8424V30.6401H100.48L105.414 24.1665H109.016L102.982 31.953L109.484 40.2374H105.578L100.433 33.4695H98.8424V40.2374H95.6382ZM117.821 40.3506C116.605 40.3506 115.498 40.1243 114.5 39.6715C113.518 39.2189 112.668 38.6078 111.951 37.8382C111.249 37.0534 110.703 36.1783 110.313 35.2125C109.924 34.2316 109.729 33.2282 109.729 32.202C109.729 31.1305 109.931 30.1121 110.337 29.1463C110.758 28.1653 111.327 27.2978 112.044 26.5432C112.777 25.7737 113.634 25.17 114.617 24.7325C115.615 24.2797 116.706 24.0534 117.891 24.0534C119.092 24.0534 120.183 24.2872 121.166 24.7551C122.163 25.2229 123.013 25.8491 123.715 26.6337C124.417 27.4185 124.962 28.2936 125.352 29.2594C125.742 30.2252 125.937 31.2212 125.937 32.2473C125.937 33.3036 125.734 34.3222 125.329 35.303C124.923 36.2688 124.354 37.1364 123.621 37.9061C122.904 38.6606 122.046 39.2566 121.049 39.6943C120.066 40.1318 118.99 40.3506 117.821 40.3506ZM113.003 32.202C113.003 32.8961 113.112 33.5677 113.33 34.2165C113.549 34.8655 113.861 35.4464 114.266 35.9594C114.687 36.4575 115.194 36.8572 115.786 37.1591C116.394 37.4458 117.08 37.5891 117.844 37.5891C118.624 37.5891 119.318 37.4383 119.926 37.1364C120.534 36.8196 121.041 36.4046 121.446 35.8914C121.852 35.3634 122.156 34.7823 122.358 34.1486C122.577 33.4998 122.686 32.8508 122.686 32.202C122.686 31.5079 122.569 30.8439 122.335 30.2101C122.117 29.5613 121.797 28.9878 121.376 28.4898C120.971 27.9768 120.464 27.5769 119.856 27.2902C119.263 26.9883 118.593 26.8375 117.844 26.8375C117.049 26.8375 116.348 26.9959 115.74 27.3128C115.147 27.6145 114.648 28.022 114.243 28.5352C113.837 29.0481 113.525 29.6217 113.307 30.2554C113.104 30.8892 113.003 31.538 113.003 32.202ZM128.459 40.2374V24.1665H131.664V30.6401H133.301L138.236 24.1665H141.837L135.803 31.953L142.305 40.2374H138.399L133.254 33.4695H131.664V40.2374H128.459ZM155.086 40.2374V26.9054H150.222L150.128 29.6217C150.05 31.7492 149.871 33.5073 149.59 34.8956C149.309 36.2838 148.904 37.3779 148.374 38.1777C147.844 38.9624 147.173 39.5207 146.363 39.8527C145.567 40.1695 144.608 40.328 143.486 40.328V37.6345C144.063 37.6345 144.562 37.5137 144.983 37.2722C145.404 37.0308 145.754 36.5933 146.035 35.9594C146.331 35.3256 146.565 34.4277 146.737 33.2658C146.908 32.1038 147.025 30.6025 147.088 28.7615L147.251 24.1665H158.291V40.2374H155.086ZM161.899 40.2374V24.1665H165.103V35.8463L173.149 24.1665H176.142V40.2374H172.938V28.6936L164.986 40.2374H161.899ZM193.254 40.2374V29.6896L188.996 37.5438H187.195L182.939 29.6896V40.2374H179.712V24.1665H183.172L188.084 33.3111L193.044 24.1665H196.481V40.2374H193.254ZM204.461 24.1665H207.736L213.841 40.2374H210.52L208.975 36.231H203.175L201.655 40.2374H198.333L204.461 24.1665ZM208.39 34.0354L206.1 27.4033L203.714 34.0354H208.39ZM226.551 26.9054H221.241V40.2374H218.037V26.9054H212.728V24.1665H226.551V26.9054Z" fill="white"/>
</svg>
