<svg width="129" height="38" viewBox="0 0 129 38" fill="none" xmlns="http://www.w3.org/2000/svg">
<rect width="37.0519" height="37.0519" rx="8.42088" fill="#158153"/>
<path fill-rule="evenodd" clip-rule="evenodd" d="M17.6983 4.56115C16.5504 4.69326 15.3784 5.15905 14.433 5.85895C14.0291 6.15793 13.3246 6.84433 13.2267 7.03421C13.1655 7.15276 13.1964 7.30745 13.5057 8.4298C13.6971 9.12401 13.8535 9.71109 13.8533 9.73443C13.8531 9.75771 13.6813 9.87321 13.4714 9.99105C11.2787 11.2227 9.47088 13.4086 8.65097 15.8195L8.49224 16.2862L9.22872 16.5205C9.63377 16.6493 9.97368 16.7459 9.98406 16.7352C9.99448 16.7244 10.0739 16.516 10.1605 16.2722C10.6501 14.8939 11.5393 13.5548 12.6138 12.5772C13.1838 12.0587 14.2305 11.3248 14.2989 11.3958C14.3228 11.4206 14.4131 11.7247 14.7146 12.7948L14.7949 13.0799L14.4428 13.3234C14.045 13.5985 13.5285 14.0541 13.2861 14.3438L13.1235 14.5381L13.6995 15.0724L14.2756 15.6067L14.7054 15.1924C14.9418 14.9644 15.1632 14.778 15.1975 14.778C15.2539 14.778 15.697 16.2475 15.697 16.4347C15.697 16.4771 15.6065 16.6197 15.4959 16.7517C15.0871 17.2395 14.778 17.8128 14.6427 18.3343C14.5817 18.5694 14.6509 18.5372 13.6693 18.7865C12.7464 19.0207 12.8464 19.0247 12.884 18.7556C12.941 18.3465 13.1042 17.7036 13.237 17.3645L13.3656 17.036L12.6811 16.7007C12.3046 16.5164 11.9786 16.377 11.9566 16.3911C11.8852 16.4369 11.6432 17.1209 11.5098 17.6536C11.4383 17.9393 11.3527 18.4504 11.3196 18.7893L11.2594 19.4056L8.40908 20.132C6.84137 20.5316 5.53045 20.8862 5.4959 20.9201C5.41501 20.9994 5.17991 21.8445 5.0998 22.344C5.01749 22.8575 5.02101 24.057 5.10633 24.5345C5.47705 26.6097 6.51541 28.2893 8.12384 29.4155C8.79491 29.8852 9.40547 30.1642 10.246 30.385L10.7727 30.5234L11.7155 29.5371L12.6583 28.5509L13.0418 28.799C13.536 29.1186 14.3907 29.5409 14.9596 29.7465C15.9698 30.1115 16.7209 30.2712 17.8299 30.3568C18.6292 30.4185 19.1466 30.3964 20.0349 30.2627L20.6072 30.1766L20.5773 29.9518C20.5609 29.8282 20.4951 29.4727 20.4313 29.1618L20.3151 28.5967L20.0995 28.6239C18.2304 28.8599 17.1776 28.7808 15.7259 28.295C15.1873 28.1148 13.801 27.4386 13.801 27.3561C13.801 27.3357 14.0578 27.0372 14.3718 26.6928L14.9426 26.0667L15.3593 26.2693C16.2752 26.7146 17.4782 27.0205 18.3171 27.0213L18.4883 27.0214V26.2016V25.3817L18.2381 25.3816C17.723 25.3815 16.4514 25.0622 16.1973 24.8692C16.1294 24.8176 16.2155 24.7057 16.7362 24.1684L17.3559 23.5291L17.6983 23.6062C18.2486 23.7304 19.0451 23.7048 19.5491 23.5468C19.6107 23.5275 20.5762 24.5322 22.8866 27.0196C24.6746 28.9446 26.1722 30.5196 26.2146 30.5196C26.3562 30.5196 27.1172 30.3014 27.5406 30.1394C29.0618 29.5572 30.4409 28.2355 31.2216 26.6115C31.5994 25.8257 31.9181 24.6488 31.9181 24.0398C31.9181 23.9096 31.9418 23.7879 31.9708 23.7693C31.9997 23.7507 32.0234 23.5633 32.0234 23.3529C32.0234 23.1425 32.0031 22.9833 31.9782 22.9993C31.9533 23.0152 31.9177 22.8384 31.899 22.6063C31.8803 22.3741 31.8077 21.9628 31.7377 21.6923C31.5202 20.8519 31.6846 20.9721 30.2467 20.6027L28.984 20.2783L28.9526 19.3182C28.9176 18.2497 28.8319 17.6198 28.5962 16.6979C28.1333 14.8875 27.2824 13.3382 25.9745 11.9239L25.4685 11.3768L25.2041 11.672C25.0588 11.8344 24.8233 12.1091 24.6808 12.2825L24.4218 12.5977L24.7654 12.9636C25.9202 14.1933 26.6597 15.525 27.0932 17.1556C27.2611 17.787 27.3888 18.746 27.3888 19.3749C27.3888 19.8194 27.3797 19.8658 27.2967 19.8403C27.246 19.8248 26.8701 19.7217 26.4614 19.6112L25.7182 19.4102L25.6879 18.9661C25.6041 17.74 25.1761 16.4364 24.5264 15.4286C24.0368 14.6692 24.1503 14.6971 23.5668 15.1935C23.2878 15.431 23.0143 15.6624 22.959 15.7079C22.8619 15.7877 22.8658 15.8008 23.0756 16.0905C23.3625 16.4865 23.7095 17.2117 23.8791 17.7696C24.0141 18.2139 24.1484 18.9244 24.1057 18.9688C24.0873 18.9879 23.3859 18.8177 22.5928 18.6018C22.4226 18.5554 22.3964 18.5215 22.3108 18.2358C22.1708 17.7684 21.8933 17.2497 21.5608 16.834L21.2655 16.4648L22.5172 11.9183C23.2057 9.41774 23.7896 7.3145 23.8149 7.24448C23.8546 7.13429 23.8163 7.06875 23.5313 6.75961C22.7138 5.87272 21.8073 5.27241 20.7088 4.89068C19.8216 4.58235 18.6388 4.45287 17.6983 4.56115ZM17.564 6.21811C16.58 6.41368 15.7196 6.82356 15.0437 7.41867L14.8907 7.55335L15.9808 11.5073C16.5804 13.682 17.0796 15.4882 17.0902 15.5211C17.1033 15.562 17.2323 15.5473 17.496 15.475C18.0275 15.3291 18.949 15.3291 19.4805 15.475C19.7488 15.5486 19.874 15.5625 19.8895 15.5204C19.952 15.3514 22.0695 7.64392 22.0695 7.58549C22.0695 7.47213 21.3894 6.97272 20.8846 6.71544C20.155 6.34366 19.5554 6.1951 18.6726 6.16744C18.183 6.15203 17.8105 6.16908 17.564 6.21811ZM18.0172 17.0205C17.6292 17.1052 17.0586 17.4221 16.7854 17.7047C16.2909 18.2161 16.0512 18.8267 16.0568 19.5606C16.0674 20.9539 17.1378 22.0508 18.4883 22.052C20.6642 22.0538 21.7609 19.3275 20.2252 17.7337C19.9344 17.4319 19.5898 17.2099 19.2377 17.0976C18.9126 16.994 18.3124 16.9561 18.0172 17.0205ZM10.562 21.2486L6.71739 22.2416L6.65661 22.5408C6.62322 22.7054 6.59357 23.0644 6.59078 23.3385C6.57177 25.2084 7.51781 27.054 9.01695 28.0714C9.46303 28.3741 10.0046 28.6474 10.2109 28.6739C10.2997 28.6853 10.9351 28.0353 13.1088 25.7096L15.8929 22.7308L15.5374 22.3354C15.1277 21.8798 14.7512 21.1764 14.6144 20.6111C14.5655 20.4091 14.4987 20.2464 14.466 20.2497C14.4334 20.253 12.6766 20.7024 10.562 21.2486ZM22.4134 20.4472C22.298 21.0893 21.8718 21.8946 21.364 22.4302L21.079 22.7308L23.85 25.7096C26.2863 28.3287 26.639 28.6875 26.7692 28.6803C26.9621 28.6697 27.6132 28.3472 28.0183 28.0617C29.6963 26.8791 30.6661 24.599 30.3336 22.618L30.2766 22.2775L26.4495 21.2859C24.3447 20.7405 22.5838 20.2822 22.5365 20.2674C22.4713 20.247 22.4415 20.2905 22.4134 20.4472ZM5.02344 23.414C5.02344 23.6395 5.03276 23.7317 5.04408 23.619C5.05546 23.5063 5.05546 23.3218 5.04408 23.209C5.03276 23.0963 5.02344 23.1885 5.02344 23.414Z" fill="white"/>
<path d="M48.0255 23.6028C47.4256 23.6028 46.8786 23.5146 46.3846 23.3382C45.8906 23.1529 45.4583 22.8971 45.0878 22.5707C44.7173 22.2443 44.4041 21.8605 44.1483 21.4194L45.6568 20.5593C45.8156 20.8504 46.0141 21.1062 46.2523 21.3268C46.4905 21.5385 46.7595 21.7017 47.0595 21.8164C47.3682 21.9311 47.6946 21.9884 48.0387 21.9884C48.4622 21.9884 48.8459 21.909 49.19 21.7502C49.534 21.5826 49.8251 21.3577 50.0633 21.0754C50.3103 20.7842 50.4956 20.4534 50.6191 20.0829C50.7514 19.7036 50.8176 19.3066 50.8176 18.892L51.5586 19.3948H47.2315V18.0451H51.5189L50.8044 18.5347C50.7867 18.1642 50.7161 17.8069 50.5926 17.4628C50.4691 17.1188 50.2883 16.8144 50.0501 16.5497C49.8119 16.2851 49.5252 16.0778 49.19 15.9278C48.8547 15.769 48.471 15.6896 48.0387 15.6896C47.7035 15.6896 47.3859 15.747 47.0859 15.8616C46.786 15.9675 46.5213 16.1263 46.292 16.338C46.0626 16.5497 45.8685 16.81 45.7097 17.1188L44.2674 16.1263C44.6467 15.5264 45.1363 15.0368 45.7362 14.6575C46.3449 14.2693 47.1168 14.0752 48.0519 14.0752C48.7841 14.0752 49.437 14.2075 50.0104 14.4722C50.5838 14.7369 51.069 15.0941 51.466 15.5441C51.863 15.994 52.1629 16.5012 52.3658 17.0658C52.5776 17.6304 52.6834 18.2171 52.6834 18.8258C52.6834 19.461 52.5731 20.0653 52.3526 20.6387C52.1409 21.2121 51.8277 21.7238 51.4131 22.1737C51.0073 22.6148 50.5176 22.9632 49.9442 23.2191C49.3708 23.4749 48.7312 23.6028 48.0255 23.6028ZM54.1111 23.5234V14.1281H55.924V17.9127H56.8503L59.6424 14.1281H61.6803L58.2662 18.6802L61.9449 23.5234H59.7351L56.8238 19.5668H55.924V23.5234H54.1111ZM66.6619 23.5896C65.9738 23.5896 65.3475 23.4573 64.7829 23.1926C64.2271 22.928 63.7463 22.5707 63.3405 22.1208C62.9435 21.662 62.6347 21.1504 62.4142 20.5858C62.1936 20.0123 62.0834 19.4257 62.0834 18.8258C62.0834 18.1994 62.198 17.604 62.4274 17.0394C62.6656 16.4659 62.9876 15.9587 63.3934 15.5176C63.808 15.0677 64.2932 14.7148 64.849 14.459C65.4136 14.1943 66.0311 14.062 66.7016 14.062C67.3809 14.062 67.9984 14.1987 68.5542 14.4722C69.1188 14.7457 69.5996 15.1118 69.9966 15.5705C70.3936 16.0293 70.7023 16.5409 70.9229 17.1055C71.1434 17.6701 71.2537 18.2524 71.2537 18.8523C71.2537 19.4698 71.139 20.0653 70.9096 20.6387C70.6803 21.2033 70.3583 21.7105 69.9436 22.1605C69.5378 22.6016 69.0526 22.95 68.488 23.2059C67.9323 23.4617 67.3235 23.5896 66.6619 23.5896ZM63.936 18.8258C63.936 19.2316 63.9977 19.6242 64.1212 20.0035C64.2447 20.3829 64.4212 20.7225 64.6505 21.0224C64.8887 21.3136 65.1754 21.5473 65.5107 21.7238C65.8547 21.8914 66.2429 21.9752 66.6751 21.9752C67.1162 21.9752 67.5088 21.887 67.8529 21.7105C68.1969 21.5253 68.4836 21.2827 68.713 20.9827C68.9424 20.674 69.1144 20.3343 69.2291 19.9638C69.3526 19.5845 69.4143 19.2051 69.4143 18.8258C69.4143 18.42 69.3482 18.0318 69.2158 17.6613C69.0923 17.282 68.9115 16.9467 68.6733 16.6556C68.4439 16.3557 68.1572 16.1219 67.8132 15.9543C67.4779 15.7778 67.0986 15.6896 66.6751 15.6896C66.2252 15.6896 65.8282 15.7822 65.4842 15.9675C65.149 16.1439 64.8667 16.3821 64.6373 16.6821C64.4079 16.982 64.2315 17.3173 64.108 17.6878C63.9933 18.0583 63.936 18.4376 63.936 18.8258ZM72.681 23.5234V14.1281H74.4939V17.9127H75.4202L78.2123 14.1281H80.2501L76.8361 18.6802L80.5148 23.5234H78.3049L75.3937 19.5668H74.4939V23.5234H72.681ZM87.7462 23.5234V15.7293H84.9938L84.9409 17.3173C84.8967 18.5611 84.7953 19.5889 84.6365 20.4005C84.4777 21.2121 84.2483 21.8517 83.9484 22.3193C83.6485 22.778 83.2691 23.1044 82.8104 23.2985C82.3605 23.4837 81.8179 23.5764 81.1827 23.5764V22.0017C81.5091 22.0017 81.7914 21.9311 82.0296 21.7899C82.2678 21.6488 82.4663 21.393 82.6251 21.0224C82.7927 20.6519 82.9251 20.127 83.0221 19.4477C83.1191 18.7684 83.1853 17.8907 83.2206 16.8144L83.3132 14.1281H89.5591V23.5234H87.7462ZM91.6007 23.5234V14.1281H93.4136V20.9563L97.9657 14.1281H99.6595V23.5234H97.8466V16.7747L93.3474 23.5234H91.6007ZM109.341 23.5234V17.357L106.932 21.9487H105.913L103.505 17.357V23.5234H101.679V14.1281H103.637L106.416 19.4742L109.222 14.1281H111.167V23.5234H109.341ZM115.682 14.1281H117.535L120.989 23.5234H119.11L118.236 21.1812H114.954L114.094 23.5234H112.215L115.682 14.1281ZM117.905 19.8976L116.609 16.0204L115.259 19.8976H117.905ZM128.18 15.7293H125.176V23.5234H123.363V15.7293H120.359V14.1281H128.18V15.7293Z" fill="#158153"/>
</svg>
