<svg width="19" height="23" viewBox="0 0 19 23" fill="none" xmlns="http://www.w3.org/2000/svg">
<g clip-path="url(#clip0_6016_4150)">
<g clip-path="url(#clip1_6016_4150)">
<g clip-path="url(#clip2_6016_4150)">
<path d="M9.6875 22.2279L3.3235 15.8639C2.06484 14.6052 1.20769 13.0016 0.860428 11.2557C0.51317 9.50994 0.691407 7.70035 1.3726 6.05582C2.05379 4.41129 3.20734 3.00569 4.68738 2.01676C6.16742 1.02784 7.90748 0.5 9.6875 0.5C11.4675 0.5 13.2076 1.02784 14.6876 2.01676C16.1677 3.00569 17.3212 4.41129 18.0024 6.05582C18.6836 7.70035 18.8618 9.50994 18.5146 11.2557C18.1673 13.0016 17.3102 14.6052 16.0515 15.8639L9.6875 22.2279ZM14.6375 14.4499C15.6164 13.4709 16.283 12.2236 16.5531 10.8658C16.8231 9.50795 16.6844 8.10052 16.1546 6.82147C15.6248 5.54243 14.7275 4.44922 13.5764 3.68009C12.4253 2.91095 11.0719 2.50042 9.6875 2.50042C8.30307 2.50042 6.94972 2.91095 5.79859 3.68009C4.64746 4.44922 3.75025 5.54243 3.22042 6.82147C2.69058 8.10052 2.55192 9.50795 2.82195 10.8658C3.09199 12.2236 3.75861 13.4709 4.7375 14.4499L9.6875 19.3999L14.6375 14.4499ZM9.6875 11.4999C9.15707 11.4999 8.64836 11.2892 8.27329 10.9141C7.89822 10.539 7.6875 10.0304 7.6875 9.49992C7.6875 8.96949 7.89822 8.46078 8.27329 8.0857C8.64836 7.71063 9.15707 7.49992 9.6875 7.49992C10.2179 7.49992 10.7266 7.71063 11.1017 8.0857C11.4768 8.46078 11.6875 8.96949 11.6875 9.49992C11.6875 10.0304 11.4768 10.539 11.1017 10.9141C10.7266 11.2892 10.2179 11.4999 9.6875 11.4999Z" fill="white"/>
</g>
</g>
</g>
<defs>
<clipPath id="clip0_6016_4150">
<rect width="18" height="22" fill="white" transform="translate(0.6875 0.5)"/>
</clipPath>
<clipPath id="clip1_6016_4150">
<rect width="18" height="22" fill="white" transform="translate(0.6875 0.5)"/>
</clipPath>
<clipPath id="clip2_6016_4150">
<rect width="18" height="22" fill="white" transform="translate(0.6875 0.5)"/>
</clipPath>
</defs>
</svg>
