<svg width="19" height="19" viewBox="0 0 19 19" fill="none" xmlns="http://www.w3.org/2000/svg">
<g clip-path="url(#clip0_6016_4156)">
<g clip-path="url(#clip1_6016_4156)">
<g clip-path="url(#clip2_6016_4156)">
<path d="M6.6785 8.182C7.61684 9.83048 8.98202 11.1957 10.6305 12.134L11.5145 10.896C11.6567 10.6969 11.8668 10.5569 12.1053 10.5023C12.3438 10.4478 12.5939 10.4825 12.8085 10.6C14.2228 11.3729 15.7847 11.8378 17.3915 11.964C17.6423 11.9839 17.8763 12.0975 18.047 12.2823C18.2177 12.4671 18.3125 12.7094 18.3125 12.961V17.423C18.3126 17.6706 18.2208 17.9094 18.0549 18.0932C17.889 18.277 17.6608 18.3927 17.4145 18.418C16.8845 18.473 16.3505 18.5 15.8125 18.5C7.2525 18.5 0.3125 11.56 0.3125 3C0.3125 2.462 0.3395 1.928 0.3945 1.398C0.419755 1.1517 0.535484 0.923521 0.71929 0.757634C0.903095 0.591747 1.14191 0.499947 1.3895 0.5H5.8515C6.10306 0.499968 6.3454 0.594752 6.53018 0.765451C6.71497 0.93615 6.82863 1.17022 6.8485 1.421C6.97472 3.02779 7.43958 4.58968 8.2125 6.004C8.32996 6.21856 8.36471 6.46874 8.31017 6.7072C8.25562 6.94565 8.11556 7.15584 7.9165 7.298L6.6785 8.182ZM4.1565 7.525L6.0565 6.168C5.51728 5.00409 5.14785 3.76884 4.9595 2.5H2.3225C2.3165 2.666 2.3135 2.833 2.3135 3C2.3125 10.456 8.3565 16.5 15.8125 16.5C15.9795 16.5 16.1465 16.497 16.3125 16.49V13.853C15.0437 13.6646 13.8084 13.2952 12.6445 12.756L11.2875 14.656C10.7412 14.4437 10.2105 14.1931 9.6995 13.906L9.6415 13.873C7.68008 12.7567 6.05578 11.1324 4.9395 9.171L4.9065 9.113C4.61941 8.60199 4.36878 8.07134 4.1565 7.525Z" fill="white"/>
</g>
</g>
</g>
<defs>
<clipPath id="clip0_6016_4156">
<rect width="18" height="18" fill="white" transform="translate(0.3125 0.5)"/>
</clipPath>
<clipPath id="clip1_6016_4156">
<rect width="18" height="18" fill="white" transform="translate(0.3125 0.5)"/>
</clipPath>
<clipPath id="clip2_6016_4156">
<rect width="18" height="18" fill="white" transform="translate(0.3125 0.5)"/>
</clipPath>
</defs>
</svg>
