<svg width="40" height="41" viewBox="0 0 40 41" fill="none" xmlns="http://www.w3.org/2000/svg">
<rect y="0.820312" width="40" height="40" fill="#158153"/>
<path d="M20.9825 27.8203C13.466 27.8203 9.17864 22.5651 9 13.8203H12.7651C12.8888 20.2387 15.6646 22.9574 17.8632 23.518V13.8203H21.4085V19.3558C23.5796 19.1176 25.8607 16.5951 26.6302 13.8203H30.1755C29.8855 15.2594 29.3075 16.622 28.4776 17.8228C27.6477 19.0237 26.5837 20.0369 25.3523 20.7993C26.7269 21.4959 27.941 22.4818 28.9145 23.6921C29.888 24.9023 30.5988 26.3093 31 27.8203H27.0974C26.7373 26.5079 26.0054 25.3331 24.9934 24.4431C23.9814 23.5532 22.7343 22.9876 21.4085 22.8173V27.8203H20.9825Z" fill="white"/>
</svg>
