<svg width="40" height="41" viewBox="0 0 40 41" fill="none" xmlns="http://www.w3.org/2000/svg">
<rect y="0.820312" width="40" height="40" fill="#158153"/>
<path d="M27.9268 12.8828C25.9512 10.9141 23.3171 9.82031 20.5366 9.82031C14.7561 9.82031 10.0732 14.487 10.0732 20.2474C10.0732 22.0703 10.5854 23.8932 11.4634 25.4245L10 30.8203L15.561 29.362C17.0976 30.1641 18.7805 30.6016 20.5366 30.6016C26.3171 30.6016 31 25.9349 31 20.1745C30.9268 17.4766 29.9024 14.8516 27.9268 12.8828ZM25.5854 23.9661C25.3659 24.5495 24.3415 25.1328 23.8293 25.2057C23.3902 25.2786 22.8049 25.2786 22.2195 25.1328C21.8537 24.987 21.3415 24.8411 20.7561 24.5495C18.122 23.4557 16.439 20.8307 16.2927 20.612C16.1463 20.4661 15.1951 19.2266 15.1951 17.9141C15.1951 16.6016 15.8537 16.0182 16.0732 15.7266C16.2927 15.4349 16.5854 15.4349 16.8049 15.4349C16.9512 15.4349 17.1707 15.4349 17.3171 15.4349C17.4634 15.4349 17.6829 15.362 17.9024 15.8724C18.122 16.3828 18.6341 17.6953 18.7073 17.7682C18.7805 17.9141 18.7805 18.0599 18.7073 18.2057C18.6341 18.3516 18.561 18.4974 18.4146 18.6432C18.2683 18.7891 18.1219 19.0078 18.0488 19.0807C17.9024 19.2266 17.7561 19.3724 17.9024 19.5911C18.0488 19.8828 18.561 20.6849 19.3659 21.4141C20.3902 22.2891 21.1951 22.5807 21.4878 22.7266C21.7805 22.8724 21.9268 22.7995 22.0732 22.6536C22.2195 22.5078 22.7317 21.9245 22.878 21.6328C23.0244 21.3411 23.2439 21.4141 23.4634 21.487C23.6829 21.5599 25 22.2161 25.2195 22.362C25.5122 22.5078 25.6585 22.5807 25.7317 22.6536C25.8049 22.8724 25.8049 23.3828 25.5854 23.9661Z" fill="white"/>
</svg>
